<svg xmlns="http://www.w3.org/2000/svg" width="263" height="238" viewBox="0 0 263 238" version="1.1"><path d="M 0 119.004 L 0 238.007 131.750 237.754 L 263.500 237.500 263.754 118.750 L 264.008 0 132.004 0 L 0 0 0 119.004 M 0.484 119.500 C 0.484 184.950, 0.604 211.578, 0.750 178.673 C 0.896 145.768, 0.896 92.218, 0.750 59.673 C 0.604 27.128, 0.484 54.050, 0.484 119.500 M 74.500 18.659 C 68.969 19.840, 59.835 23.708, 54.248 27.235 C 36.775 38.266, 26.900 60.036, 29.742 81.259 C 30.822 89.324, 35.835 106.775, 38.649 112.264 L 40.066 115.029 70.685 114.764 L 101.304 114.500 107.757 90.500 C 111.307 77.300, 114.726 66.169, 115.355 65.765 C 120.193 62.660, 121.238 65.557, 128.577 102.417 C 132.365 121.438, 135.728 137, 136.051 137 C 136.374 137, 139.246 127.438, 142.432 115.750 C 145.619 104.063, 148.681 93.938, 149.236 93.250 C 149.791 92.563, 151.260 92, 152.500 92 C 155.553 92, 156.310 93.141, 159.805 103 C 161.463 107.675, 163.133 112.287, 163.516 113.250 C 164.143 114.822, 165.965 115, 181.407 115 C 193.446 115, 198.960 115.360, 199.800 116.200 C 201.576 117.976, 201.255 121.807, 199.250 122.769 C 198.287 123.231, 188.562 123.359, 177.637 123.054 L 157.774 122.500 155.562 116.563 C 154.345 113.298, 153.098 111.048, 152.792 111.563 C 152.486 112.078, 149.461 122.400, 146.068 134.500 C 138.238 162.432, 138.767 161.201, 134.760 160.813 L 131.534 160.500 124.544 125.750 C 120.700 106.637, 117.262 91, 116.905 91 C 116.548 91, 114.511 97.592, 112.378 105.649 C 110.245 113.706, 108.013 120.964, 107.418 121.780 C 106.496 123.042, 101.691 123.234, 75.050 123.072 L 43.764 122.882 46.065 126.691 C 52.233 136.903, 67.842 159.258, 84.940 182.367 C 95.349 196.435, 104.683 209.064, 105.683 210.430 C 108.048 213.665, 109.655 214.250, 112.322 212.850 C 115.780 211.036, 157.163 184.565, 172 174.678 C 197.919 157.405, 209.679 147.440, 221.744 132.531 C 233.127 118.464, 237 108.167, 237 91.971 C 237 76.584, 232.221 64.278, 222.140 53.707 C 201.444 32.005, 168.508 32.164, 145.710 54.076 C 141.748 57.884, 138.442 61, 138.364 61 C 138.286 61, 137.933 59.457, 137.579 57.570 C 137.225 55.684, 135.340 50.951, 133.391 47.054 C 126.909 34.097, 113.491 23.343, 98.992 19.485 C 93.944 18.142, 79.245 17.646, 74.500 18.659" stroke="none" fill="#f6f5f3" fill-rule="evenodd"/><path d="M 74.500 18.659 C 68.969 19.840, 59.835 23.708, 54.248 27.235 C 36.775 38.266, 26.900 60.036, 29.742 81.259 C 30.822 89.324, 35.835 106.775, 38.649 112.264 L 40.066 115.029 70.685 114.764 L 101.304 114.500 107.757 90.500 C 111.307 77.300, 114.726 66.169, 115.355 65.765 C 120.193 62.660, 121.238 65.557, 128.577 102.417 C 132.365 121.438, 135.728 137, 136.051 137 C 136.374 137, 139.246 127.438, 142.432 115.750 C 145.619 104.063, 148.681 93.938, 149.236 93.250 C 149.791 92.563, 151.260 92, 152.500 92 C 155.553 92, 156.310 93.141, 159.805 103 C 161.463 107.675, 163.133 112.287, 163.516 113.250 C 164.143 114.822, 165.965 115, 181.407 115 C 193.446 115, 198.960 115.360, 199.800 116.200 C 201.576 117.976, 201.255 121.807, 199.250 122.769 C 198.287 123.231, 188.562 123.359, 177.637 123.054 L 157.774 122.500 155.562 116.563 C 154.345 113.298, 153.098 111.048, 152.792 111.563 C 152.486 112.078, 149.461 122.400, 146.068 134.500 C 138.238 162.432, 138.767 161.201, 134.760 160.813 L 131.534 160.500 124.544 125.750 C 120.700 106.637, 117.262 91, 116.905 91 C 116.548 91, 114.511 97.592, 112.378 105.649 C 110.245 113.706, 108.013 120.964, 107.418 121.780 C 106.496 123.042, 101.691 123.234, 75.050 123.072 L 43.764 122.882 46.065 126.691 C 52.233 136.903, 67.842 159.258, 84.940 182.367 C 95.349 196.435, 104.683 209.064, 105.683 210.430 C 108.048 213.665, 109.655 214.250, 112.322 212.850 C 115.780 211.036, 157.163 184.565, 172 174.678 C 197.919 157.405, 209.679 147.440, 221.744 132.531 C 233.127 118.464, 237 108.167, 237 91.971 C 237 76.584, 232.221 64.278, 222.140 53.707 C 201.444 32.005, 168.508 32.164, 145.710 54.076 C 141.748 57.884, 138.442 61, 138.364 61 C 138.286 61, 137.933 59.457, 137.579 57.570 C 137.225 55.684, 135.340 50.951, 133.391 47.054 C 126.909 34.097, 113.491 23.343, 98.992 19.485 C 93.944 18.142, 79.245 17.646, 74.500 18.659" stroke="none" fill="#c32424" fill-rule="evenodd"/></svg>